<svg xmlns="http://www.w3.org/2000/svg" viewBox="0 0 64 64" fill="none">
  <!-- Background circle -->
  <circle cx="32" cy="32" r="32" fill="#1e40af"/>
  
  <!-- Graduation cap -->
  <!-- Cap base/board -->
  <path d="M32 20L12 28L32 36L52 28L32 20Z" fill="#fbbf24" stroke="#f59e0b" stroke-width="1"/>
  
  <!-- Cap top -->
  <rect x="30" y="16" width="4" height="6" fill="#fbbf24" stroke="#f59e0b" stroke-width="0.5"/>
  
  <!-- Tassel -->
  <circle cx="34" cy="16" r="1.5" fill="#dc2626"/>
  <line x1="34" y1="16" x2="38" y2="12" stroke="#dc2626" stroke-width="0.8"/>
  
  <!-- Cap base (hanging part) -->
  <path d="M16 28L16 34C16 38 22 42 32 42C42 42 48 38 48 34L48 28" fill="none" stroke="#fbbf24" stroke-width="2"/>
  
  <!-- Book -->
  <rect x="26" y="45" width="12" height="14" rx="1" fill="#f3f4f6" stroke="#9ca3af" stroke-width="1"/>
  <line x1="32" y1="45" x2="32" y2="59" stroke="#9ca3af" stroke-width="1"/>
  <line x1="26" y1="48" x2="38" y2="48" stroke="#d1d5db" stroke-width="0.5"/>
  <line x1="26" y1="51" x2="38" y2="51" stroke="#d1d5db" stroke-width="0.5"/>
  <line x1="26" y1="54" x2="38" y2="54" stroke="#d1d5db" stroke-width="0.5"/>
</svg>

